<?xml version="1.0" encoding="iso-8859-1"?>
<!-- Generator: Adobe Illustrator 19.0.0, SVG Export Plug-In . SVG Version: 6.00 Build 0)  -->
<svg version="1.1" id="Layer_1" xmlns="http://www.w3.org/2000/svg" xmlns:xlink="http://www.w3.org/1999/xlink" x="0px" y="0px"
	 viewBox="0 0 512 512" style="enable-background:new 0 0 512 512;" xml:space="preserve">
<path style="fill:#FEC95B;" d="M388.384,360.122V512H123.623V360.122c0-38.518,27.51-70.626,63.949-77.721h136.863
	c0.012,0,0.012,0,0.023,0c7.896,1.544,15.375,4.25,22.238,7.954C371.511,303.733,388.384,329.965,388.384,360.122z"/>
<path style="fill:#E8B152;" d="M221.244,282.398h-33.676c-36.439,7.095-63.949,39.203-63.949,77.721v151.878h33.676V360.119
	C157.295,321.601,184.805,289.493,221.244,282.398z"/>
<g>
	<path style="fill:#E0B394;" d="M135.331,186.533c-14.399-0.639-25.861-12.518-25.861-27.068c0-14.957,12.123-27.092,27.092-27.092
		c1.347,0,2.671,0.093,3.971,0.29"/>
	<path style="fill:#E0B394;" d="M376.658,186.533c14.399-0.639,25.872-12.518,25.872-27.068c0-14.957-12.135-27.092-27.103-27.092
		c-1.347,0-2.682,0.104-3.971,0.29"/>
</g>
<path style="fill:#F7CBA4;" d="M216.807,303.638l-47.667-34.633c-25.189-18.301-38.817-48.565-35.822-79.557l8.268-85.557
	C147.28,44.964,196.798,0,256,0l0,0c59.201,0,108.719,44.964,114.414,103.891l8.268,85.557
	c2.995,30.992-10.631,61.255-35.822,79.557l-47.667,34.633C271.822,320.616,240.177,320.616,216.807,303.638z"/>
<g>
	<path style="fill:#E0B394;" d="M219.979,179.989c0,0,3.502,24.064-26.109,32.773c0,0,20.916-18.901,12.193-30.192"/>
	<path style="fill:#E0B394;" d="M162.982,206.309c-0.801,13.552,3.611,26.883,12.344,37.276l49.82,61.22
		c2.601,3.1,5.551,5.702,8.744,7.78c-5.992-2.09-11.752-5.086-17.082-8.953l-47.669-34.628
		c-25.187-18.301-38.808-48.563-35.812-79.556l8.256-85.56C147.227,45.537,195.837,0.876,254.281,0.028
		c-35.998,0.871-76.761,34.802-78.886,70.94L162.982,206.309z"/>
</g>
<path style="fill:#808080;" d="M211.269,188.698h-13.93c-4.81,0-8.709-3.899-8.709-8.709c0-4.81,3.899-8.709,8.709-8.709h13.93
	c4.81,0,8.709,3.899,8.709,8.709C219.979,184.798,216.08,188.698,211.269,188.698z"/>
<path style="fill:#E0B394;" d="M292.02,179.989c0,0-3.502,24.064,26.109,32.773c0,0-20.916-18.901-12.193-30.192"/>
<g>
	<path style="fill:#E6E6E6;" d="M327.606,152.702c-1.931,0-3.863-0.737-5.337-2.211c-8.038-8.036-21.114-8.036-29.152,0
		c-2.947,2.948-7.727,2.947-10.674,0c-2.947-2.948-2.947-7.727,0.001-10.674c13.921-13.922,36.577-13.922,50.497,0
		c2.948,2.947,2.948,7.727,0.001,10.674C331.47,151.965,329.537,152.702,327.606,152.702z"/>
	<path style="fill:#E6E6E6;" d="M224.217,152.702c-1.932,0-3.863-0.737-5.337-2.211c-8.037-8.037-21.114-8.037-29.15,0
		c-2.947,2.948-7.727,2.948-10.674,0c-2.948-2.947-2.948-7.727,0-10.674c13.922-13.922,36.576-13.922,50.498,0
		c2.948,2.947,2.948,7.727,0,10.674C228.081,151.965,226.149,152.702,224.217,152.702z"/>
</g>
<rect x="249.037" y="325.981" style="fill:#E8B152;" width="13.935" height="186.018"/>
<path style="fill:#808080;" d="M314.66,188.698h-13.93c-4.811,0-8.709-3.899-8.709-8.709c0-4.81,3.898-8.709,8.709-8.709h13.93
	c4.811,0,8.709,3.899,8.709,8.709C323.369,184.798,319.469,188.698,314.66,188.698z"/>
<path style="fill:#E8B152;" d="M346.742,290.785c0,0-0.012,4.575-1.335,11.427c-3.042,15.932-13.134,44.173-46.438,55.542
	l-5.806-18.58l-37.159,44.127l-37.159-44.127l-5.806,18.58c-33.304-11.368-43.395-39.61-46.449-55.542
	c-1.324-6.851-1.335-11.427-1.335-11.427c27.126,12.181,63.368,16.455,82.784-8.384c3.135-3.995,5.818-8.744,7.966-14.33
	c2.729,7.107,7.234,11.601,12.832,14.33c15.224,7.443,38.472,1.8,55.623,0c7.896,1.544,15.375,4.25,22.238,7.954
	C346.719,290.495,346.731,290.634,346.742,290.785z"/>
<g>
	<path style="fill:#E6E6E6;" d="M367.203,265.296c-5.667,4.285-12.692,8.431-20.461,11.926
		c-31.493,14.144-75.259,17.628-90.739-22.714c-10.695,27.835-34.849,34.802-59.142,31.806c-10.916-1.347-21.854-4.715-31.609-9.092
		c-7.769-3.495-14.794-7.641-20.461-11.926c24.107,0,33.792-25.791,58.48-41.27c0.012-0.012,0.023-0.023,0.023-0.023
		c3.321-2.09,6.921-3.983,10.869-5.609c15.224-6.271,26.348-3.913,33.931,0.476c3.31,1.916,5.992,4.575,7.931,7.687
		c2.09-3.321,5.017-6.155,8.64-8.117c7.56-4.111,18.44-6.108,33.176-0.046C331.054,232.073,339.856,265.296,367.203,265.296z"/>
	<path style="fill:#E6E6E6;" d="M346.742,277.222c0,0-0.012,4.575-1.335,11.427c-3.042,15.932-13.134,44.173-46.438,55.542
		l-5.806-18.58l-37.159,44.127l-37.159-44.127l-3.495,11.183l-2.311,7.397c-33.304-11.368-43.395-39.61-46.449-55.542
		c-1.324-6.851-1.335-11.427-1.335-11.427c8.674,3.902,18.278,6.979,27.974,8.558c25.489,4.18,51.547-2.044,62.776-31.272
		C271.483,294.85,315.25,291.366,346.742,277.222z"/>
</g>
<path style="fill:#CCCCCC;" d="M346.742,277.222c0,0-0.012,4.575-1.335,11.427c-31.376,13.644-74.145,16.466-89.403-23.306
	c-15.27,39.772-58.038,36.95-89.415,23.306c-1.324-6.851-1.335-11.427-1.335-11.427c31.493,14.144,75.259,17.627,90.75-22.714
	C271.483,294.85,315.25,291.366,346.742,277.222z"/>
<g>
	<path style="fill:#E6E6E6;" d="M369.501,85.094c-0.497,0-0.999-0.043-1.506-0.131l-33.311-5.806
		c-4.738-0.826-7.91-5.337-7.085-10.076c0.827-4.739,5.328-7.911,10.076-7.085l33.311,5.806c4.738,0.826,7.91,5.337,7.085,10.076
		C377.332,82.111,373.655,85.094,369.501,85.094z"/>
	<path style="fill:#E6E6E6;" d="M376.782,116.973c-0.533,0-1.074-0.049-1.618-0.151l-30.927-5.806
		c-4.727-0.887-7.841-5.439-6.952-10.167c0.888-4.727,5.439-7.841,10.167-6.953l30.927,5.806c4.727,0.887,7.841,5.439,6.952,10.167
		C384.545,114.054,380.889,116.973,376.782,116.973z"/>
	<path style="fill:#E6E6E6;" d="M142.495,85.094c-4.154,0-7.833-2.982-8.57-7.215c-0.826-4.739,2.346-9.249,7.085-10.076
		l33.311-5.806c4.745-0.828,9.249,2.346,10.076,7.085c0.827,4.739-2.346,9.249-7.085,10.076L144,84.964
		C143.495,85.051,142.991,85.094,142.495,85.094z"/>
	<path style="fill:#E6E6E6;" d="M135.216,116.973c-4.108,0-7.765-2.919-8.55-7.104c-0.888-4.727,2.225-9.279,6.952-10.167
		l30.927-5.806c4.729-0.887,9.279,2.226,10.167,6.953c0.888,4.727-2.225,9.279-6.952,10.167l-30.927,5.806
		C136.29,116.924,135.749,116.973,135.216,116.973z"/>
</g>
<g>
	<polygon style="fill:#E8B152;" points="185.157,512 167.738,512 176.447,361.04 	"/>
	<polygon style="fill:#E8B152;" points="344.246,512 326.827,512 335.536,361.04 	"/>
</g>
<path style="fill:#E0B394;" d="M256.024,226.56l15.117-4.027c4.657-1.24,7.425-6.021,6.185-10.678l-10.301-38.664"/>
<g>
	<circle style="fill:#4D4D4D;" cx="284.478" cy="392.775" r="8.709"/>
	<circle style="fill:#4D4D4D;" cx="284.478" cy="433.697" r="8.709"/>
	<circle style="fill:#4D4D4D;" cx="284.478" cy="474.793" r="8.709"/>
</g>
<g>
	<path style="fill:#CCCCCC;" d="M215.349,336.793l-2.311,7.397c-33.304-11.368-43.395-39.61-46.449-55.542
		c-1.324-6.851-1.335-11.427-1.335-11.427c8.674,3.902,18.278,6.979,27.974,8.558c0.43,1.486,0.65,3.089,0.65,4.784
		C193.878,317.203,208.486,331.533,215.349,336.793z"/>
	<path style="fill:#CCCCCC;" d="M178.201,267.921c2.915,9.731,12.135,15.456,18.661,18.394c-10.916-1.347-21.854-4.715-31.609-9.092
		c-7.769-3.495-14.794-7.641-20.461-11.926c24.107,0,33.792-25.791,58.48-41.27C202.436,224.816,173.591,252.534,178.201,267.921z"
		/>
</g>
<g>
</g>
<g>
</g>
<g>
</g>
<g>
</g>
<g>
</g>
<g>
</g>
<g>
</g>
<g>
</g>
<g>
</g>
<g>
</g>
<g>
</g>
<g>
</g>
<g>
</g>
<g>
</g>
<g>
</g>
</svg>
