<svg height="512pt" viewBox="-78 0 512 512" width="512pt" xmlns="http://www.w3.org/2000/svg"><path d="m220.457031 42.113281c0 23.261719-18.855469 42.117188-42.113281 42.117188-23.261719 0-42.117188-18.855469-42.117188-42.117188 0-23.257812 18.855469-42.113281 42.117188-42.113281 23.257812 0 42.113281 18.855469 42.113281 42.113281zm0 0" fill="#b2b9bf"/><path d="m178.34375 34.6875c-71.386719 2.160156-128.492188 52.988281-128.492188 115.382812 0 109.203126 57.105469 129.152344 128.492188 129.960938 71.382812-.808594 128.492188-20.757812 128.492188-129.960938 0-62.394531-57.109376-113.222656-128.492188-115.382812zm0 0" fill="#d7dee3"/><path d="m178.34375 34.6875c-8.449219.253906-16.691406 1.199219-24.667969 2.757812 59.429688 11.601563 103.828125 57.613282 103.828125 112.625 0 96.28125-44.398437 123.175782-103.828125 128.75 7.976563.746094 16.21875 1.113282 24.667969 1.210938 71.382812-.808594 128.492188-20.757812 128.492188-129.960938 0-62.394531-57.109376-113.222656-128.492188-115.382812zm0 0" fill="#ccd2d6"/><g fill="#fed6a6"><path d="m324.207031 350.882812c-24.371093-12.371093-49.925781-21.449218-76.027343-27.242187-18.34375-4.070313-31.46875-20.21875-31.46875-39.007813v-34.40625h-76.738282v34.40625c0 18.789063-13.125 34.9375-31.46875 39.007813-26.105468 5.792969-51.65625 14.871094-76.027344 27.242187-19.925781 10.113282-32.476562 30.5625-32.476562 52.90625v98.21875c0 5.519532 4.472656 9.992188 9.992188 9.992188h336.699218c5.519532 0 9.992188-4.472656 9.992188-9.992188v-98.21875c0-22.34375-12.550782-42.792968-32.476563-52.90625zm0 0"/><path d="m97.148438 150.1875h-13.949219c-11.839844 0-21.425781 9.597656-21.425781 21.4375v10.140625c0 11.835937 9.585937 21.4375 21.425781 21.4375h13.949219zm0 0"/><path d="m259.535156 150.1875h13.949219c11.839844 0 21.425781 9.597656 21.425781 21.4375v10.140625c0 11.835937-9.585937 21.4375-21.425781 21.4375h-13.949219zm0 0"/></g><path d="m247.628906 136.585938c-61.234375 0-69.25-33.570313-69.25-33.570313h-.074218s-8.015626 33.570313-69.25 33.570313c-10.59375 0-19.207032 8.519531-19.1875 19.113281.039062 21.652343.101562 53.144531.101562 53.144531 0 54.71875 55.402344 83.46875 88.367188 83.46875h.007812.007812c32.964844 0 88.363282-28.75 88.363282-83.46875 0 0 .0625-31.492188.101562-53.144531.019532-10.59375-8.59375-19.113281-19.1875-19.113281zm0 0" fill="#ffe3c2"/><path d="m247.628906 136.585938c-12.21875 0-22.3125-1.339844-30.652344-3.480469-.035156 30.730469-.074218 75.742187-.074218 75.742187 0 42.34375-33.179688 69.132813-63.464844 79.082032 8.84375 2.90625 17.445312 4.382812 24.898438 4.382812h.007812.007812c32.964844 0 88.363282-28.75 88.363282-83.464844 0 0 .0625-31.496094.101562-53.148437.019532-10.59375-8.59375-19.113281-19.1875-19.113281zm0 0" fill="#fed6a6"/><path d="m324.207031 350.882812c-15.183593-7.707031-30.828125-14.136718-46.777343-19.289062-32.257813-10.019531-31.214844 26.945312-99.089844 26.945312-62.953125 0-66.832032-36.964843-99.089844-26.945312-15.949219 5.152344-31.589844 11.582031-46.777344 19.289062-19.921875 10.113282-32.472656 30.5625-32.472656 52.90625v98.21875c0 5.519532 4.472656 9.992188 9.992188 9.992188h336.699218c5.519532 0 9.992188-4.472656 9.992188-9.992188v-98.21875c0-22.34375-12.550782-42.792968-32.476563-52.90625zm0 0" fill="#fc6a58"/><path d="m346.691406 512c5.519532 0 9.992188-4.472656 9.992188-9.992188v-98.21875c0-22.34375-12.550782-42.792968-32.472656-52.90625-15.1875-7.707031-30.828126-14.136718-46.777344-19.289062-27.394532-8.507812-30.785156 16.855469-72.734375 24.703125 23.90625 5.8125 47.300781 14.394531 69.699219 25.765625 19.921874 10.113281 32.472656 30.558594 32.472656 52.902344v77.035156zm0 0" fill="#e35052"/><path d="m178.34375 358.539062c-62.953125 0-66.832031-36.964843-99.089844-26.945312-4.289062 1.386719-8.554687 2.871094-12.796875 4.441406-2.089843 5.921875-1.238281 11.894532 1.835938 15.210938 4.035156 4.640625 11.859375 6.789062 19.550781 1.699218.996094-.664062 2.234375.320313 1.820312 1.441407-3.285156 8.921875-.265624 17.945312 5.808594 21.300781 6.011719 4.042969 15.964844 3.59375 22.867188-4.09375.792968-.878906 2.234375-.238281 2.109375.941406-1.085938 10.273438 5.441406 18.238282 13.105469 20.34375 7.808593 2.359375 18.21875-1.09375 23.015624-10.828125.535157-1.089843 2.109376-.863281 2.316407.332031 1.859375 10.644532 10.980469 16.832032 19.421875 16.730469 8.441406.101563 17.566406-6.085937 19.429687-16.730469.207031-1.195312 1.777344-1.421874 2.3125-.332031 4.796875 9.734375 15.203125 13.1875 23.015625 10.828125 7.667969-2.105468 14.195313-10.070312 13.109375-20.34375-.125-1.179687 1.320313-1.820312 2.109375-.941406 6.902344 7.6875 16.855469 8.136719 22.867188 4.09375 5.714844-4.09375 9.242187-12.359375 5.851562-21.324219-.421875-1.117187.8125-2.101562 1.816406-1.449219 7.65625 4.960938 16.070313 3.449219 19.519532-1.667968 2.703125-3.742188 3.839844-9.4375 1.882812-15.210938-.027344-.011718-.050781-.019531-.074218-.027344-1.878907-.699218-6.15625-2.210937-6.40625-2.296874-2.097657-.730469-4.203126-1.4375-6.3125-2.117188-32.253907-10.019531-31.214844 26.945312-99.085938 26.945312zm0 0" fill="#c35f58"/><path d="m290.222656 336.03125c-.023437-.007812-.046875-.015625-.070312-.023438-.304688-.113281-.609375-.222656-.914063-.335937-1.417969-.515625-3.335937-1.199219-4.496093-1.609375-.453126-.160156-.902344-.316406-1.351563-.472656-1.980469-.683594-3.960937-1.351563-5.949219-1.992188-.003906-.003906-.007812-.003906-.011718-.003906-27.390626-8.503906-30.78125 16.855469-72.730469 24.703125 19.222656 4.675781 38.113281 11.140625 56.421875 19.40625.011718-.003906.023437-.011719.03125-.015625 5.714844-4.097656 9.242187-12.363281 5.851562-21.324219-.421875-1.121093.8125-2.101562 1.816406-1.453125 7.65625 4.960938 16.070313 3.453125 19.519532-1.664062 2.703125-3.746094 3.839844-9.4375 1.882812-15.214844zm0 0" fill="#b24d4b"/><path d="m297.644531 445.242188c-4.269531 0-7.726562 3.457031-7.726562 7.726562v59.03125h15.453125v-59.03125c0-4.265625-3.460938-7.726562-7.726563-7.726562zm0 0" fill="#c35f58"/><path d="m59.039062 445.242188c-4.265624 0-7.726562 3.457031-7.726562 7.726562v59.03125h15.453125v-59.03125c0-4.265625-3.457031-7.726562-7.726563-7.726562zm0 0" fill="#c35f58"/><path d="m178.34375 259.597656c-12.359375 0-22.945312-6.367187-26.347656-15.84375-1.445313-4.015625.644531-8.441406 4.660156-9.882812s8.441406.644531 9.882812 4.660156c.988282 2.757812 5.675782 5.613281 11.804688 5.613281 6.125 0 10.8125-2.855469 11.800781-5.613281 1.445313-4.015625 5.871094-6.101562 9.882813-4.660156 4.019531 1.441406 6.105468 5.867187 4.660156 9.882812-3.402344 9.476563-13.988281 15.84375-26.34375 15.84375zm0 0" fill="#c35f58"/><path d="m197.222656 200.636719c-4.265625 0-10.390625-1.039063-10.390625-7.726563 0-4.679687-3.808593-8.488281-8.488281-8.488281-4.683594 0-8.167969 3.820313-8.492188 8.488281-.394531 5.65625-2.96875 7.726563-10.386718 7.726563-4.269532 0-5.066406-3.457031-5.066406-7.726563 0-13.199218 10.742187-23.941406 23.945312-23.941406s23.941406 10.742188 23.941406 23.941406c0 4.269532-.792968 7.726563-5.0625 7.726563zm0 0" fill="#ccd2d6"/><path d="m224.472656 184.421875c-4.269531 0-7.726562-3.460937-7.726562-7.726563v-8.882812c0-4.265625 3.457031-7.726562 7.726562-7.726562 4.265625 0 7.722656 3.460937 7.722656 7.726562v8.882812c0 4.265626-3.457031 7.726563-7.722656 7.726563zm0 0" fill="#844535"/><path d="m132.214844 184.421875c-4.269532 0-7.726563-3.460937-7.726563-7.726563v-8.882812c0-4.265625 3.457031-7.726562 7.726563-7.726562 4.265625 0 7.722656 3.460937 7.722656 7.726562v8.882812c.003906 4.265626-3.457031 7.726563-7.722656 7.726563zm0 0" fill="#844535"/><path d="m248.179688 323.640625c-18.34375-4.070313-31.46875-20.21875-31.46875-39.011719v-2.191406c-13.339844 6.542969-27.148438 9.875-38.363282 9.875 0 0-.003906 0-.007812 0 0 0-.003906 0-.007813 0-3.578125 0-7.425781-.339844-11.433593-1.015625v24.511719c0 18.789062 13.125 34.9375 31.46875 39.007812 2.113281.46875 4.226562.96875 6.332031 1.480469 41.949219-7.847656 45.339843-33.210937 72.730469-24.703125-9.648438-3.117188-19.410157-5.769531-29.25-7.953125zm0 0" fill="#efc79c"/><path d="m162.125 193.453125c0-8.976563-11.59375-16.257813-25.898438-16.257813-14.300781 0-25.898437 7.28125-25.898437 16.257813 0 8.980469 11.597656 16.257813 25.898437 16.257813 14.304688 0 25.898438-7.277344 25.898438-16.257813zm0 0" fill="#80d5e8"/><path d="m246.355469 193.453125c0-8.976563-11.59375-16.257813-25.898438-16.257813-14.304687 0-25.898437 7.28125-25.898437 16.257813 0 8.980469 11.59375 16.257813 25.898437 16.257813 14.304688 0 25.898438-7.277344 25.898438-16.257813zm0 0" fill="#80d5e8"/></svg>